<svg xmlns="http://www.w3.org/2000/svg" width="1200" height="720" viewBox="0 0 1200 720" fill="none">
  <defs>
    <linearGradient id="bg4" x1="0" y1="0" x2="1" y2="1">
      <stop offset="0%" stop-color="#0f172a" />
      <stop offset="100%" stop-color="#0b1324" />
    </linearGradient>
    <linearGradient id="accent4" x1="0" y1="0" x2="1" y2="0">
      <stop offset="0%" stop-color="#f97316" />
      <stop offset="100%" stop-color="#0ea5e9" />
    </linearGradient>
  </defs>
  <rect width="1200" height="720" rx="28" fill="url(#bg4)" />
  <rect x="70" y="70" width="1060" height="580" rx="26" fill="#0b1324" stroke="#1f2937" stroke-width="4" />
  <rect x="96" y="126" width="1008" height="468" rx="22" fill="#0f172a" stroke="#1f2937" stroke-width="3" />

  <rect x="140" y="160" width="320" height="150" rx="18" fill="#0b1324" stroke="#1f2937" />
  <rect x="160" y="184" width="140" height="26" rx="12" fill="#111827" />
  <rect x="160" y="218" width="220" height="16" rx="8" fill="#111827" />
  <rect x="160" y="244" width="180" height="14" rx="7" fill="#111827" />
  <rect x="160" y="270" width="120" height="14" rx="7" fill="#111827" />

  <rect x="500" y="160" width="580" height="150" rx="18" fill="#0b1324" stroke="#1f2937" />
  <rect x="520" y="182" width="200" height="24" rx="10" fill="#111827" />
  <rect x="520" y="214" width="320" height="14" rx="7" fill="#111827" />
  <rect x="520" y="236" width="280" height="14" rx="7" fill="#111827" />
  <rect x="520" y="260" width="220" height="14" rx="7" fill="#111827" />
  <rect x="880" y="182" width="180" height="52" rx="14" fill="url(#accent4)" />

  <rect x="140" y="340" width="940" height="230" rx="20" fill="#0b1324" stroke="#1f2937" />
  <rect x="164" y="364" width="220" height="22" rx="10" fill="#111827" />
  <rect x="164" y="396" width="320" height="14" rx="7" fill="#111827" />
  <rect x="164" y="420" width="220" height="14" rx="7" fill="#111827" />
  <rect x="164" y="444" width="160" height="14" rx="7" fill="#111827" />

  <rect x="530" y="364" width="520" height="30" rx="10" fill="#0f172a" stroke="#1f2937" />
  <rect x="546" y="374" width="180" height="12" rx="6" fill="#111827" />
  <rect x="738" y="374" width="180" height="12" rx="6" fill="#22d3ee" />
  <rect x="930" y="374" width="90" height="12" rx="6" fill="#f97316" />

  <rect x="530" y="412" width="520" height="120" rx="16" fill="#0f172a" stroke="#1f2937" />
  <rect x="550" y="434" width="80" height="60" rx="10" fill="#0b1324" />
  <rect x="642" y="434" width="80" height="60" rx="10" fill="#0b1324" />
  <rect x="734" y="434" width="80" height="60" rx="10" fill="#0b1324" />
  <rect x="826" y="434" width="80" height="60" rx="10" fill="#0b1324" />
  <rect x="918" y="434" width="80" height="60" rx="10" fill="#0b1324" />
  <rect x="550" y="502" width="448" height="20" rx="10" fill="#111827" />

  <rect x="140" y="590" width="360" height="26" rx="10" fill="#0b1324" stroke="#1f2937" />
  <rect x="160" y="600" width="120" height="10" rx="5" fill="url(#accent4)" />
  <rect x="300" y="600" width="80" height="10" rx="5" fill="#111827" />
  <rect x="400" y="600" width="80" height="10" rx="5" fill="#111827" />
</svg>
