<svg xmlns="http://www.w3.org/2000/svg" width="1200" height="720" viewBox="0 0 1200 720" fill="none">
  <defs>
    <linearGradient id="bg2" x1="0" y1="0" x2="1" y2="1">
      <stop offset="0%" stop-color="#0f172a" />
      <stop offset="100%" stop-color="#0b1324" />
    </linearGradient>
    <linearGradient id="accent2" x1="0" y1="0" x2="1" y2="0">
      <stop offset="0%" stop-color="#0ea5e9" />
      <stop offset="100%" stop-color="#38bdf8" />
    </linearGradient>
  </defs>
  <rect width="1200" height="720" rx="28" fill="url(#bg2)" />
  <rect x="70" y="70" width="1060" height="580" rx="26" fill="#0b1324" stroke="#1f2937" stroke-width="4" />
  <rect x="90" y="120" width="1000" height="440" rx="22" fill="#0f172a" stroke="#1f2937" stroke-width="3" />

  <rect x="130" y="160" width="520" height="140" rx="18" fill="#0b1324" stroke="#1f2937" />
  <rect x="150" y="182" width="240" height="36" rx="12" fill="url(#accent2)" />
  <rect x="150" y="228" width="360" height="18" rx="9" fill="#111827" />
  <rect x="150" y="254" width="320" height="12" rx="6" fill="#111827" />
  <rect x="150" y="276" width="180" height="12" rx="6" fill="#111827" />
  <rect x="700" y="162" width="330" height="136" rx="18" fill="#0b1324" stroke="#1f2937" />
  <rect x="720" y="184" width="180" height="24" rx="10" fill="#111827" />
  <rect x="720" y="216" width="260" height="14" rx="7" fill="#111827" />
  <rect x="720" y="240" width="260" height="14" rx="7" fill="#111827" />
  <rect x="720" y="264" width="200" height="14" rx="7" fill="#111827" />

  <rect x="130" y="330" width="450" height="180" rx="18" fill="#0b1324" stroke="#1f2937" />
  <rect x="150" y="352" width="200" height="22" rx="11" fill="#111827" />
  <rect x="150" y="384" width="280" height="14" rx="7" fill="#111827" />
  <rect x="150" y="408" width="280" height="14" rx="7" fill="#111827" />
  <rect x="150" y="432" width="200" height="14" rx="7" fill="#111827" />
  <rect x="640" y="330" width="390" height="180" rx="18" fill="#0b1324" stroke="#1f2937" />
  <rect x="660" y="352" width="120" height="20" rx="10" fill="url(#accent2)" />
  <rect x="810" y="352" width="180" height="20" rx="10" fill="#111827" />
  <rect x="660" y="380" width="330" height="14" rx="7" fill="#111827" />
  <rect x="660" y="404" width="330" height="14" rx="7" fill="#111827" />
  <rect x="660" y="428" width="280" height="14" rx="7" fill="#111827" />

  <rect x="130" y="532" width="880" height="48" rx="12" fill="#0b1324" stroke="#1f2937" />
  <rect x="150" y="548" width="200" height="16" rx="8" fill="url(#accent2)" />
  <rect x="370" y="548" width="140" height="16" rx="8" fill="#22d3ee" opacity="0.9" />
  <rect x="530" y="548" width="140" height="16" rx="8" fill="#38bdf8" opacity="0.85" />
  <rect x="690" y="548" width="140" height="16" rx="8" fill="#14b8a6" opacity="0.85" />
  <rect x="850" y="548" width="140" height="16" rx="8" fill="#e2e8f0" opacity="0.85" />
</svg>
