<svg xmlns="http://www.w3.org/2000/svg" width="1200" height="720" viewBox="0 0 1200 720" fill="none">
  <defs>
    <linearGradient id="bg1" x1="0" y1="0" x2="1" y2="1">
      <stop offset="0%" stop-color="#0b1324" />
      <stop offset="100%" stop-color="#0f172a" />
    </linearGradient>
    <linearGradient id="accent1" x1="0" y1="0" x2="1" y2="0">
      <stop offset="0%" stop-color="#0ea5e9" />
      <stop offset="100%" stop-color="#14b8a6" />
    </linearGradient>
  </defs>
  <rect width="1200" height="720" rx="28" fill="url(#bg1)" />
  <rect x="60" y="60" width="1080" height="600" rx="24" fill="#0f172a" stroke="#1e293b" stroke-width="4" />
  <rect x="80" y="110" width="180" height="520" rx="18" fill="#0b1324" stroke="#1f2937" stroke-width="3" />
  <rect x="82" y="128" width="176" height="56" rx="12" fill="url(#accent1)" />
  <rect x="82" y="200" width="176" height="38" rx="10" fill="#111827" stroke="#1f2937" />
  <rect x="82" y="248" width="176" height="38" rx="10" fill="#111827" stroke="#1f2937" />
  <rect x="82" y="296" width="176" height="38" rx="10" fill="#111827" stroke="#1f2937" />
  <rect x="82" y="344" width="176" height="38" rx="10" fill="#111827" stroke="#1f2937" />
  <rect x="82" y="392" width="176" height="38" rx="10" fill="#111827" stroke="#1f2937" />
  <rect x="82" y="440" width="176" height="38" rx="10" fill="#111827" stroke="#1f2937" />
  <rect x="82" y="488" width="176" height="38" rx="10" fill="#111827" stroke="#1f2937" />
  <rect x="82" y="536" width="176" height="38" rx="10" fill="#111827" stroke="#1f2937" />

  <rect x="280" y="110" width="840" height="140" rx="18" fill="#0b1324" stroke="#1f2937" stroke-width="3" />
  <rect x="300" y="128" width="200" height="36" rx="10" fill="#111827" />
  <rect x="300" y="172" width="320" height="20" rx="10" fill="#111827" />
  <rect x="640" y="128" width="140" height="36" rx="10" fill="url(#accent1)" />
  <rect x="800" y="128" width="140" height="36" rx="10" fill="#111827" />
  <rect x="960" y="128" width="140" height="36" rx="10" fill="#111827" />

  <rect x="280" y="280" width="520" height="230" rx="18" fill="#0b1324" stroke="#1f2937" stroke-width="3" />
  <rect x="308" y="304" width="180" height="22" rx="10" fill="#111827" />
  <rect x="308" y="336" width="260" height="16" rx="8" fill="#111827" />
  <rect x="308" y="372" width="456" height="2" fill="#1f2937" />
  <rect x="328" y="388" width="36" height="88" rx="8" fill="url(#accent1)" />
  <rect x="380" y="368" width="36" height="108" rx="8" fill="#22d3ee" opacity="0.9" />
  <rect x="432" y="348" width="36" height="128" rx="8" fill="#38bdf8" opacity="0.85" />
  <rect x="484" y="324" width="36" height="152" rx="8" fill="#0ea5e9" />
  <rect x="536" y="352" width="36" height="124" rx="8" fill="#14b8a6" />
  <rect x="588" y="368" width="36" height="108" rx="8" fill="#f97316" opacity="0.9" />
  <rect x="640" y="332" width="36" height="144" rx="8" fill="#e2e8f0" opacity="0.8" />

  <rect x="830" y="280" width="290" height="110" rx="16" fill="#0b1324" stroke="#1f2937" stroke-width="3" />
  <rect x="850" y="300" width="160" height="22" rx="10" fill="#111827" />
  <rect x="850" y="330" width="220" height="14" rx="7" fill="#111827" />
  <rect x="850" y="354" width="220" height="14" rx="7" fill="#111827" />

  <rect x="830" y="410" width="290" height="100" rx="16" fill="#0b1324" stroke="#1f2937" stroke-width="3" />
  <rect x="850" y="430" width="120" height="20" rx="10" fill="#111827" />
  <rect x="980" y="430" width="120" height="20" rx="10" fill="url(#accent1)" />
  <rect x="850" y="460" width="220" height="12" rx="6" fill="#111827" />
</svg>
